<svg width="45" height="40" viewBox="0 0 45 40" fill="none" xmlns="http://www.w3.org/2000/svg">
<path d="M13.3594 23.0769C13.3594 28.6 17.4516 33.0769 22.5 33.0769C27.5484 33.0769 31.6406 28.6 31.6406 23.0769C31.6406 17.5538 27.5484 13.0769 22.5 13.0769C17.4516 13.0769 13.3594 17.5538 13.3594 23.0769ZM42.1875 6.15385H32.3438C31.6406 3.07692 30.9375 0 28.125 0H16.875C14.0625 0 13.3594 3.07692 12.6562 6.15385H2.8125C1.26562 6.15385 0 7.53846 0 9.23077V36.9231C0 38.6154 1.26562 40 2.8125 40H42.1875C43.7344 40 45 38.6154 45 36.9231V9.23077C45 7.53846 43.7344 6.15385 42.1875 6.15385ZM22.5 36.7308C15.6066 36.7308 10.0195 30.6185 10.0195 23.0769C10.0195 15.5354 15.6066 9.42308 22.5 9.42308C29.3934 9.42308 34.9805 15.5354 34.9805 23.0769C34.9805 30.6185 29.3934 36.7308 22.5 36.7308ZM42.1875 15.3846H36.5625V12.3077H42.1875V15.3846Z" fill="black"/>
</svg>
