<svg width="46" height="46" viewBox="0 0 46 46" fill="none" xmlns="http://www.w3.org/2000/svg">
<path d="M16.7624 32.193L18.578 29.6519L16.5895 27.6635L14.0483 29.479C13.5772 29.216 13.0723 29.0051 12.5421 28.8546L12.0289 25.7749H9.21626L8.70297 28.8546C8.17279 29.0051 7.66793 29.2146 7.19683 29.479L4.65565 27.6635L2.66715 29.6519L4.48268 32.193C4.2197 32.6641 4.00876 33.169 3.85969 33.6991L0.779907 34.2124V37.0249L3.85969 37.5382C4.01016 38.0683 4.2197 38.5732 4.48409 39.0443L2.66856 41.5854L4.65706 43.5738L7.19823 41.7583C7.66934 42.0213 8.1742 42.2322 8.70437 42.3827L9.21767 45.4624H12.0303L12.5436 42.3827C13.0737 42.2322 13.5786 42.0227 14.0497 41.7583L16.5909 43.5738L18.5794 41.5854L16.7638 39.0443C17.0268 38.5732 17.2378 38.0683 17.3882 37.5382L20.468 37.0249V34.2124L17.3882 33.6991C17.2378 33.169 17.0282 32.6641 16.7638 32.193H16.7624ZM10.6226 38.4312C9.0686 38.4312 7.80997 37.1726 7.80997 35.6187C7.80997 34.0647 9.0686 32.8062 10.6226 32.8062C12.1765 32.8062 13.4351 34.0647 13.4351 35.6187C13.4351 37.1726 12.1765 38.4312 10.6226 38.4312ZM45.7799 17.3374V14.5249L42.8182 13.9863C42.7634 13.6333 42.6945 13.2846 42.6101 12.9415L45.14 11.3116L44.0642 8.71287L41.1223 9.3485C40.9366 9.04475 40.7383 8.74943 40.5288 8.46396L42.2431 5.98756L40.2546 3.99912L37.7781 5.71334C37.4926 5.50381 37.1973 5.30553 36.8935 5.1199L37.5292 2.17803L34.9303 1.10225L33.3005 3.63209C32.9573 3.54912 32.6086 3.47881 32.2556 3.42396L31.717 0.462402H28.9044L28.3658 3.42396C28.0128 3.47881 27.664 3.54771 27.3209 3.63209L25.691 1.10225L23.0922 2.17803L23.7278 5.1199C23.4241 5.30553 23.1287 5.50381 22.8433 5.71334L20.3668 3.99912L18.3783 5.98756L20.0925 8.46396C19.883 8.74943 19.6847 9.04475 19.4991 9.3485L16.5571 8.71287L15.4813 11.3116L18.0112 12.9415C17.9283 13.2846 17.8579 13.6333 17.8031 13.9863L14.8414 14.5249V17.3374L17.8031 17.876C17.8579 18.229 17.9268 18.5777 18.0112 18.9208L15.4813 20.5507L16.5571 23.1494L19.4991 22.5138C19.6847 22.8176 19.883 23.1129 20.0925 23.3983L18.3783 25.8747L20.3668 27.8632L22.8433 26.149C23.1287 26.3585 23.4241 26.5568 23.7278 26.7424L23.0922 29.6843L25.691 30.7601L27.3209 28.2302C27.664 28.3132 28.0128 28.3835 28.3658 28.4383L28.9044 31.3999H31.717L32.2556 28.4383C32.6086 28.3835 32.9573 28.3146 33.3005 28.2302L34.9303 30.7601L37.5292 29.6843L36.8935 26.7424C37.1973 26.5568 37.4926 26.3585 37.7781 26.149L40.2546 27.8632L42.2431 25.8747L40.5288 23.3983C40.7383 23.1129 40.9366 22.8176 41.1223 22.5138L44.0642 23.1494L45.14 20.5507L42.6101 18.9208C42.6931 18.5777 42.7634 18.229 42.8182 17.876L45.7799 17.3374ZM30.3107 22.0483C26.9328 22.0483 24.1933 19.309 24.1933 15.9312C24.1933 12.5533 26.9328 9.81396 30.3107 9.81396C33.6886 9.81396 36.4281 12.5533 36.4281 15.9312C36.4281 19.309 33.6886 22.0483 30.3107 22.0483Z" fill="black"/>
</svg>
