<svg width="50" height="50" viewBox="0 0 50 50" fill="none" xmlns="http://www.w3.org/2000/svg">
<path d="M4.6875 40.625C2.10312 40.625 0 42.7281 0 45.3125C0 47.8969 2.10312 50 4.6875 50C7.27187 50 9.375 47.8969 9.375 45.3125C9.375 42.7281 7.27187 40.625 4.6875 40.625ZM4.6875 46.875C3.82656 46.875 3.125 46.1734 3.125 45.3125C3.125 44.4516 3.82656 43.75 4.6875 43.75C5.54844 43.75 6.25 44.4516 6.25 45.3125C6.25 46.1734 5.54844 46.875 4.6875 46.875ZM45.0297 16.7C45.2172 15.8328 45.3125 14.9484 45.3125 14.0625C45.3125 7.17031 39.7047 1.5625 32.8125 1.5625C30.3734 1.5625 27.9922 2.28125 25.9656 3.61094C23.6359 1.3 20.5109 0 17.1875 0C10.3625 0 4.79688 5.49844 4.68906 12.3C1.7 15.2344 0 19.2516 0 23.4375C0 28.4844 2.37969 33.1125 6.42812 36.0516C6.30937 36.5281 6.25 37.0125 6.25 37.5C6.25 40.9469 9.05312 43.75 12.5 43.75C13.0312 43.75 13.5547 43.6812 14.0641 43.5453C16.2438 47.5125 20.3844 50 25 50C29.4891 50 33.6562 47.5406 35.8625 43.6641C43.8609 42.9156 50 36.2594 50 28.125C50 23.7625 48.2016 19.6531 45.0297 16.7ZM12.5 40.625C10.7766 40.625 9.375 39.2234 9.375 37.5C9.375 35.7766 10.7766 34.375 12.5 34.375C14.2234 34.375 15.625 35.7766 15.625 37.5C15.625 39.2234 14.2234 40.625 12.5 40.625ZM34.8281 40.6L33.8781 40.6344L33.4719 41.4938C31.925 44.7625 28.6 46.875 25 46.875C21.1406 46.875 17.7234 44.5531 16.2938 40.9609L16.0984 40.4703C16.7688 39.6594 17.1875 38.6344 17.1875 37.5C17.1875 34.9109 15.0891 32.8125 12.5 32.8125C11.2219 32.8125 10.0672 33.3266 9.22188 34.1562L9.12813 34.0984C5.36875 31.8031 3.125 27.8172 3.125 23.4375C3.125 19.8937 4.65156 16.4984 7.31406 14.1219L7.86406 13.6313L7.8125 12.5C7.8125 7.32969 12.0172 3.125 17.1875 3.125C20.0594 3.125 22.7375 4.42344 24.5312 6.68437L25.5344 7.94844L26.7656 6.90625C28.4547 5.475 30.6031 4.6875 32.8125 4.6875C37.9828 4.6875 42.1875 8.89219 42.1875 14.0625C42.1875 14.9828 42.0516 15.9 41.7812 16.7891L41.4781 17.7891L42.2875 18.4516C45.2031 20.8375 46.875 24.3641 46.875 28.125C46.875 34.8781 41.5828 40.3594 34.8281 40.6ZM18.75 23.4375H17.1875V20.3125H18.75V23.4375ZM31.25 20.3125H32.8125V23.4375H31.25V20.3125ZM19.475 25.1891L21.6844 27.3984L20.5797 28.5031L18.3703 26.2937L19.475 25.1891ZM30.525 18.5609L28.3156 16.3516L29.4203 15.2469L31.6297 17.4562L30.525 18.5609ZM21.875 29.6875H28.125V31.25H21.875V29.6875ZM21.875 32.8125H28.125V34.375H21.875V32.8125ZM26.5625 15.625H23.4375V14.0625H26.5625V15.625ZM30.525 25.1891L31.6297 26.2937L29.4203 28.5031L28.3156 27.3984L30.525 25.1891ZM20.5812 15.2453L21.6859 16.35L19.4766 18.5594L18.3719 17.4547L20.5812 15.2453ZM23.4375 35.9375H26.5625V37.5H23.4375V35.9375Z" fill="black"/>
</svg>
