<svg width="45" height="45" viewBox="0 0 45 45" fill="none" xmlns="http://www.w3.org/2000/svg">
<path d="M37.9688 30.9366C35.9845 30.9366 34.193 31.7607 32.9147 33.0827L13.9739 23.6124C14.0316 23.2496 14.0625 22.8783 14.0625 22.5C14.0625 22.1217 14.0316 21.749 13.9739 21.3876L32.9147 11.9173C34.193 13.2393 35.9845 14.0634 37.9688 14.0634C41.8514 14.0634 45 10.9146 45 7.03169C45 3.14879 41.8514 0 37.9688 0C34.0861 0 30.9375 3.14879 30.9375 7.03169C30.9375 7.40999 30.9684 7.78267 31.0261 8.1441L12.0853 17.6144C10.807 16.2924 9.01547 15.4683 7.03125 15.4683C3.14859 15.4683 0 18.6171 0 22.5C0 26.3829 3.14859 29.5317 7.03125 29.5317C9.01547 29.5317 10.807 28.7076 12.0853 27.3856L31.0261 36.8559C30.9684 37.2187 30.9375 37.59 30.9375 37.9683C30.9375 41.8512 34.0861 45 37.9688 45C41.8514 45 45 41.8512 45 37.9683C45 34.0854 41.8514 30.9366 37.9688 30.9366Z" fill="black"/>
</svg>
