<svg width="45" height="45" viewBox="0 0 45 45" fill="none" xmlns="http://www.w3.org/2000/svg">
<path d="M5.625 39.375H45V45H0V0H5.625V39.375ZM12.6562 36.5625C10.3261 36.5625 8.4375 34.6739 8.4375 32.3438C8.4375 30.0136 10.3261 28.125 12.6562 28.125C12.78 28.125 12.9038 28.132 13.0247 28.1419L17.5598 20.5833C17.1281 19.9209 16.875 19.1306 16.875 18.2798C16.875 15.9497 18.7636 14.0611 21.0938 14.0611C23.4239 14.0611 25.3125 15.9497 25.3125 18.2798C25.3125 19.1292 25.0608 19.9209 24.6277 20.5833L29.1628 28.1419C29.2838 28.132 29.4075 28.125 29.5312 28.125C29.6255 28.125 29.7183 28.1292 29.8097 28.1348L37.2966 15.0342C36.8339 14.3564 36.5625 13.538 36.5625 12.6562C36.5625 10.3261 38.4511 8.4375 40.7812 8.4375C43.1114 8.4375 45 10.3261 45 12.6562C45 14.9864 43.1114 16.875 40.7812 16.875C40.687 16.875 40.5942 16.8708 40.5028 16.8652L33.0159 29.9658C33.4786 30.6422 33.75 31.462 33.75 32.3438C33.75 34.6739 31.8614 36.5625 29.5312 36.5625C27.2011 36.5625 25.3125 34.6739 25.3125 32.3438C25.3125 31.4944 25.5642 30.7027 25.9973 30.0403L21.4622 22.4817C21.3412 22.4916 21.2175 22.4986 21.0938 22.4986C20.97 22.4986 20.8463 22.4916 20.7253 22.4817L16.1902 30.0403C16.6219 30.7027 16.875 31.493 16.875 32.3423C16.875 34.6725 14.9864 36.5611 12.6562 36.5611V36.5625Z" fill="black"/>
</svg>
